Coordinates
version=1
nRows=16
nColumns=42
inDegrees=yes

Units are S.I. units (second, meters, Newtons, ...)
If the header above contains a line with 'inDegrees', this indicates whether rotational values are in degrees (yes) or radians (no).

endheader
time	pelvis_tilt	pelvis_list	pelvis_rotation	pelvis_tx	pelvis_ty	pelvis_tz	hip_flexion_r	hip_adduction_r	hip_rotation_r	knee_angle_r	knee_adduction_r	knee_angle_r_beta	ankle_angle_r	subtalar_angle_r	mtp_angle_r	hip_flexion_l	hip_adduction_l	hip_rotation_l	knee_angle_l	knee_adduction_l	knee_angle_l_beta	ankle_angle_l	subtalar_angle_l	mtp_angle_l	lumbar_extension	lumbar_bending	lumbar_rotation	arm_flex_r	arm_add_r	arm_rot_r	elbow_flex_r	pro_sup_r	wrist_flex_r	wrist_dev_r	arm_flex_l	arm_add_l	arm_rot_l	elbow_flex_l	pro_sup_l	wrist_flex_l	wrist_dev_l
      0.75000000	     19.27236220	     -0.38978852	      0.50363748	     -1.20396217	      0.88294816	     -0.00584855	    -27.99029814	      4.33961478	    -10.39133927	     18.85961421	     -0.34202170	      0.32916236	     27.39957188	      6.10183133	     -8.19867699	      8.10664364	     -3.12435227	      7.84877058	      9.73134765	      4.31138530	      0.16984406	      2.50637687	    -10.57151776	     -8.19867699	    -37.07089657	     -0.06869935	      0.93077428	     23.02895469	     -9.32905906	      0.19580736	     35.79377656	     90.00000001	      0.00000000	      0.00000000	      4.83250569	     -3.92051433	    -35.78260458	     32.38017056	     90.00000001	      0.00000000	      0.00000000
      0.76000000	     19.29398286	     -0.32244843	      0.52193796	     -1.19443255	      0.88161754	     -0.00724585	    -28.47439836	      3.99996329	    -11.39432424	     19.42331767	     -0.35736146	      0.33900084	     27.71925845	      7.04026765	     -8.14609213	      8.25577675	     -2.90720620	      8.70949213	     10.49727739	      4.69259990	      0.18321205	      1.26794553	    -13.69602649	     -8.14609213	    -36.96389482	     -0.08533822	      0.81176419	     23.06614244	     -9.34742676	      0.54662972	     35.88287328	     90.00000001	      0.00000000	      0.00000000	      4.76276234	     -3.78688036	    -36.47949442	     32.09779981	     90.00000001	      0.00000000	      0.00000000
      0.77000000	     19.22401540	     -0.38594594	      0.41692488	     -1.18460962	      0.88022406	     -0.00835989	    -28.91502809	      3.81458567	    -11.64052442	     19.88549342	     -0.34093058	      0.34706733	     27.64877444	      7.10520631	     -8.13909086	      8.46582439	     -2.86586000	      8.84401914	     11.39901668	      4.99276258	      0.19895037	      1.28325655	    -14.09645259	     -8.13909086	    -36.72045938	     -0.06130005	      0.91306589	     23.00379521	     -9.33255373	      0.50671623	     35.91133861	     90.00000001	      0.00000000	      0.00000000	      4.53817939	     -3.68213984	    -36.51481317	     31.96422858	     90.00000001	      0.00000000	      0.00000000
      0.78000000	     19.03578163	     -0.44668790	      0.34623566	     -1.17466912	      0.87867624	     -0.00962982	    -29.15004417	      3.61832573	    -12.04680223	     20.51561531	     -0.39185418	      0.35806504	     27.57456075	      7.29516095	     -8.13092277	      8.89321927	     -2.80696453	      8.96514344	     12.64031561	      5.37469577	      0.22061513	      1.22094099	    -14.58835049	     -8.13092277	    -36.34383788	     -0.01734343	      1.00959255	     22.87119448	     -9.32262471	      0.43461869	     35.93363631	     90.00000001	      0.00000000	      0.00000000	      4.33305799	     -3.56533118	    -36.58677360	     31.81000901	     90.00000001	      0.00000000	      0.00000000
      0.79000000	     18.74449578	     -0.49060609	      0.33362687	     -1.16444215	      0.87697432	     -0.01099667	    -29.25849463	      3.45118665	    -12.80797076	     21.15773275	     -0.64463675	      0.36927210	     27.66435460	      8.16388901	     -8.11266355	      9.52872508	     -2.67572511	      8.94820985	     14.22347805	      5.65619133	      0.24824652	      1.00962892	    -15.18673912	     -8.11266355	    -35.81361623	      0.03251811	      1.03787831	     22.65060628	     -9.27236137	      0.23460178	     35.92795586	     90.00000001	      0.00000000	      0.00000000	      4.11247145	     -3.44396061	    -36.85168238	     31.58415906	     90.00000001	      0.00000000	      0.00000000
      0.80000000	     18.51748792	     -0.51728802	      0.27362980	     -1.15419325	      0.87548997	     -0.01241745	    -29.37225651	      3.15483183	    -13.35292702	     21.98063321	     -0.71087714	      0.38363442	     27.51703136	      8.60868307	     -8.10103020	      9.93509439	     -2.58327643	      9.18769422	     15.55678280	      6.08913288	      0.27151708	      0.90123130	    -15.40578155	     -8.10103020	    -35.36495125	      0.04560590	      1.10503676	     22.39897104	     -9.25679803	      0.05666054	     35.93955958	     90.00000001	      0.00000000	      0.00000000	      3.88823531	     -3.32157679	    -36.99577738	     31.40503048	     90.00000001	      0.00000000	      0.00000000
      0.81000000	     18.27759413	     -0.50059900	      0.14497917	     -1.14390277	      0.87420374	     -0.01361578	    -29.47688271	      2.86761917	    -13.46300802	     22.76003375	     -0.83030623	      0.39723753	     27.30726860	      8.85078807	     -8.09749833	     10.15880826	     -2.47928760	      9.75924909	     16.55021151	      6.59301408	      0.28885568	      0.65870449	    -15.43947186	     -8.09749833	    -34.91575235	     -0.05833739	      1.27805421	     22.08574144	     -9.26248083	     -0.06285948	     35.86331801	     90.00000001	      0.00000000	      0.00000000	      3.71763664	     -3.22079877	    -37.08455296	     31.28860488	     90.00000001	      0.00000000	      0.00000000
      0.82000000	     18.05138957	     -0.48592297	      0.15589100	     -1.13344312	      0.87294185	     -0.01530004	    -29.53763898	      2.49373146	    -13.97813845	     23.72687644	     -0.82046491	      0.41411212	     26.91346323	      9.20006784	     -8.09241895	     10.62321570	     -2.33244317	     10.08296525	     18.12105962	      7.12216459	      0.31627215	      0.40722491	    -15.69142859	     -8.09241895	    -34.45958976	     -0.04005789	      1.29469019	     21.71366857	     -9.24714567	     -0.33446459	     35.86738935	     90.00000001	      0.00000000	      0.00000000	      3.52085465	     -3.11279019	    -37.22254178	     31.08902715	     90.00000001	      0.00000000	      0.00000000
      0.83000000	     17.77709334	     -0.37170310	      0.19500652	     -1.12252966	      0.87162974	     -0.01696425	    -29.53884918	      2.09840045	    -15.12529619	     24.65457567	     -1.23953813	      0.43030352	     26.85054186	     11.00945725	     -8.06066374	     11.27231685	     -1.97452043	      9.81312935	     20.11115052	      7.27920304	      0.35100579	      0.49819573	    -15.48958853	     -8.06066374	    -33.87694561	     -0.14121215	      1.27619741	     21.23294291	     -9.07225405	     -1.22443503	     35.81582654	     90.00000001	      0.00000000	      0.00000000	      3.36454183	     -2.99449329	    -37.74344244	     30.83935917	     90.00000001	      0.00000000	      0.00000000
      0.84000000	     17.55285868	     -0.23754577	      0.20870710	     -1.11182027	      0.87069106	     -0.01865408	    -29.57450720	      1.65173788	    -15.45453991	     25.64378994	     -1.32337286	      0.44756857	     26.17410619	     11.19162318	     -8.04832887	     11.63576313	     -1.64919142	     10.19963968	     21.57702116	      7.67743524	      0.37659006	      0.37818816	    -15.58141325	     -8.04832887	    -33.40775590	     -0.27977393	      1.28286217	     20.71460166	     -9.04238277	     -1.53658783	     35.79977175	     90.00000001	      0.00000000	      0.00000000	      3.18864959	     -2.92351454	    -37.84063665	     30.67639825	     90.00000001	      0.00000000	      0.00000000
      0.85000000	     17.38337400	     -0.11908180	      0.17263646	     -1.10111978	      0.87005813	     -0.02024704	    -29.61039343	      1.16099702	    -15.54362339	     26.73905010	     -1.28104175	      0.46668446	     25.43622014	     11.30736021	     -8.04347390	     11.83232874	     -1.42446132	     10.74603731	     22.82548895	      8.26250669	      0.39837994	      0.39451162	    -15.65580568	     -8.04347390	    -33.00768901	     -0.43084905	      1.34449757	     20.19358283	     -9.01754667	     -1.80152127	     35.72715592	     90.00000001	      0.00000000	      0.00000000	      3.03415203	     -2.85144457	    -37.90150525	     30.54268366	     90.00000001	      0.00000000	      0.00000000
      0.86000000	     17.20955932	      0.08919795	      0.22158103	     -1.09025834	      0.86952439	     -0.02209362	    -29.62196461	      0.64350073	    -15.78067413	     27.84595962	     -1.35841879	      0.48600368	     24.37487597	     11.40411839	     -8.03676595	     12.12437335	     -0.99063207	     11.05291401	     24.34336501	      8.60576269	      0.42487187	      0.58577206	    -15.80923352	     -8.03676595	    -32.58945854	     -0.62990214	      1.31269221	     19.57880749	     -8.96290380	     -2.30185183	     35.69750412	     90.00000001	      0.00000000	      0.00000000	      2.89530463	     -2.80550220	    -37.99290121	     30.39344411	     90.00000001	      0.00000000	      0.00000000
      0.87000000	     17.09669158	      0.30533547	      0.25346530	     -1.07937820	      0.86928175	     -0.02386068	    -29.63615109	      0.09979161	    -15.91500599	     29.04714769	     -1.40383175	      0.50696837	     23.20566772	     11.45361163	     -8.03032715	     12.26791952	     -0.57997240	     11.37188041	     25.72005369	      8.98078605	      0.44889962	      0.92165482	    -15.87734868	     -8.03032715	    -32.23971382	     -0.86087862	      1.31362838	     18.94017823	     -8.87435226	     -2.84711753	     35.62724624	     90.00000001	      0.00000000	      0.00000000	      2.78338696	     -2.74807187	    -38.07586754	     30.26161025	     90.00000001	      0.00000000	      0.00000000
      0.88000000	     17.03224656	      0.58709998	      0.30701928	     -1.06847158	      0.86928887	     -0.02569205	    -29.64609879	     -0.48260585	    -16.06114884	     30.29966500	     -1.50373158	      0.52882892	     21.72186356	     11.36195097	     -8.02133871	     12.31503983	     -0.04015477	     11.52854494	     27.07990721	      9.17555465	      0.47263354	      1.47450808	    -15.83346765	     -8.02133871	    -31.95522768	     -1.14984711	      1.28936306	     18.25634770	     -8.74492005	     -3.61517640	     35.55906569	     90.00000001	      0.00000000	      0.00000000	      2.70539013	     -2.72288889	    -38.17016570	     30.13932383	     90.00000001	      0.00000000	      0.00000000
      0.89000000	     17.07077812	      0.79179209	      0.34680611	     -1.05779484	      0.86966288	     -0.02745041	    -29.65159426	     -1.01069679	    -15.95227396	     31.71205970	     -1.48303324	      0.55347985	     20.43364209	     11.32449147	     -8.01759852	     12.10913094	      0.29421119	     11.93323655	     28.12725414	      9.66671798	      0.49091319	      1.97403125	    -15.89100204	     -8.01759852	    -31.83033590	     -1.37367336	      1.30855403	     17.62134881	     -8.69972196	     -4.00252767	     35.41023244	     90.00000001	      0.00000000	      0.00000000	      2.66164136	     -2.69741825	    -38.20604898	     30.05852066	     90.00000001	      0.00000000	      0.00000000
      0.90000000	     17.13934340	      1.17957781	      0.42958380	     -1.04686833	      0.87025542	     -0.02935129	    -29.64522962	     -1.73987416	    -16.02792088	     33.23832067	     -1.44568400	      0.58011813	     18.14062743	     10.45019686	     -8.00041268	     11.82556046	      0.97519079	     11.55362403	     29.23141913	      9.51212888	      0.51018451	      2.98954456	    -15.36358980	     -8.00041268	    -31.70702929	     -1.76119453	      1.23257813	     16.88696159	     -8.43013456	     -5.37003489	     35.32887824	     90.00000001	      0.00000000	      0.00000000	      2.65668393	     -2.70602753	    -38.27133747	     29.95053979	     90.00000001	      0.00000000	      0.00000000
